<?xml version="1.0" standalone="no"?>
<!DOCTYPE svg PUBLIC "-//W3C//DTD SVG 20010904//EN"
 "http://www.w3.org/TR/2001/REC-SVG-20010904/DTD/svg10.dtd">
<svg version="1.0" xmlns="http://www.w3.org/2000/svg"
 width="1280.000000pt" height="720.000000pt" viewBox="0 0 1280.000000 720.000000"
 preserveAspectRatio="xMidYMid meet">
<metadata>
Created by potrace 1.16, written by Peter Selinger 2001-2019
</metadata>
<g transform="translate(0.000000,720.000000) scale(0.100000,-0.100000)"
fill="#000000" stroke="none">
<path d="M760 6946 c0 -140 5 -289 11 -332 10 -76 10 -78 -13 -96 -47 -36
-148 -11 -148 36 0 14 5 26 11 28 13 4 18 456 5 476 -10 17 -33 4 -44 -26 -17
-42 -37 -425 -23 -430 6 -2 9 -7 6 -12 -3 -4 2 -13 10 -20 11 -9 12 -17 3 -38
-6 -15 -14 -112 -18 -217 -10 -230 -15 -264 -46 -301 -21 -24 -28 -26 -52 -18
l-27 9 -8 165 c-7 159 -5 278 9 463 4 57 2 102 -5 130 -7 23 -14 51 -16 62 -2
11 -4 22 -5 25 -1 3 -1 16 0 30 2 24 1 25 -14 5 -8 -11 -16 -25 -16 -31 0 -6
-11 -23 -25 -38 -14 -15 -25 -31 -25 -37 0 -12 -107 -12 -115 1 -4 6 -28 9
-53 7 -46 -4 -48 -5 -77 -62 -28 -56 -30 -67 -36 -229 -4 -94 -8 -260 -8 -368
-1 -161 2 -199 14 -211 12 -12 47 -16 167 -17 84 0 170 -2 192 -3 30 -2 41 2
53 19 15 24 54 36 75 23 9 -6 13 -38 15 -110 0 -56 5 -105 10 -110 4 -4 105
-11 223 -15 l215 -6 16 33 c16 34 16 34 109 42 54 4 101 13 110 21 8 8 29 21
47 30 34 17 35 23 49 193 6 79 5 83 -20 108 -14 14 -26 28 -26 31 0 3 -7 12
-15 20 -10 11 -15 38 -16 87 -2 105 1 120 21 141 18 18 24 19 72 7 31 -7 189
-16 381 -21 180 -5 331 -11 335 -13 4 -3 68 -7 142 -11 326 -15 354 -18 383
-38 24 -17 41 -19 121 -16 72 2 98 7 113 21 11 9 30 17 44 17 32 0 57 16 44
29 -6 5 -61 13 -124 17 -94 5 -124 11 -165 32 -49 25 -136 46 -136 33 0 -3
-13 -12 -28 -19 -21 -9 -75 -11 -188 -9 -87 2 -189 -1 -225 -6 -36 -6 -81 -7
-100 -3 -30 5 -35 10 -37 37 -2 22 5 38 27 60 34 34 63 37 98 9 14 -11 30 -17
35 -14 7 5 7 333 -1 662 -1 22 -3 22 -131 22 -99 0 -130 -3 -130 -13 0 -7 -9
-19 -20 -27 -11 -8 -20 -20 -20 -27 0 -7 -7 -33 -15 -57 -11 -32 -18 -115 -23
-289 -6 -190 -11 -248 -23 -260 -8 -9 -20 -23 -26 -31 -9 -11 -26 -14 -60 -10
-27 2 -118 6 -203 9 -129 4 -157 8 -167 22 -10 13 -13 99 -13 350 l0 333 -30
0 -30 0 -1 -242 c-1 -134 -2 -259 -3 -278 -1 -19 -3 -66 -4 -105 l-2 -70 -61
3 c-34 2 -67 9 -74 15 -8 8 -11 33 -9 72 2 33 6 183 8 333 l4 272 -29 0 c-27
0 -29 -3 -30 -37 -1 -21 -3 -96 -5 -168 -2 -71 -4 -210 -5 -307 0 -130 -3
-178 -12 -179 -26 -2 -103 2 -118 7 -32 9 -38 45 -22 145 11 70 13 142 9 279
-3 102 -6 202 -6 223 0 34 -2 37 -30 37 l-30 0 0 -254z m256 -1089 c21 -12 26
-57 9 -73 -21 -21 -65 -6 -85 30 -14 25 -13 28 5 42 19 14 50 15 71 1z"/>
<path d="M3104 7103 c-10 -121 -9 -180 5 -215 9 -25 14 -27 46 -22 44 7 45 0
2 -21 -31 -15 -34 -19 -34 -63 0 -26 -4 -115 -8 -197 -5 -100 -4 -158 2 -170
8 -14 7 -38 -1 -80 -16 -76 -24 -95 -41 -89 -9 4 -16 -5 -19 -28 -7 -42 -11
-147 -8 -215 l2 -53 58 0 c31 1 86 8 120 18 l64 17 3 108 c2 59 7 116 10 126
9 31 92 64 160 64 79 1 434 -21 461 -29 16 -4 27 -21 39 -60 9 -29 13 -58 10
-65 -13 -19 -32 -223 -24 -240 11 -22 102 -51 134 -43 29 7 75 -2 75 -15 0 -5
-8 -11 -19 -14 -12 -3 -18 -13 -17 -28 1 -22 6 -24 54 -27 55 -3 92 12 73 31
-15 15 11 36 64 51 44 14 84 48 85 74 0 14 101 112 178 172 24 18 62 80 62 99
0 8 21 34 48 58 l47 43 0 455 0 455 -811 0 -812 0 -8 -97z m1096 -1273 c0 -5
-7 -10 -15 -10 -8 0 -15 5 -15 10 0 6 7 10 15 10 8 0 15 -4 15 -10z"/>
<path d="M5860 7183 c0 -9 -5 -31 -12 -49 -6 -18 -8 -39 -3 -50 4 -11 7 -25 6
-31 -1 -7 3 -13 8 -13 7 0 7 -9 0 -26 -10 -27 -13 -90 -10 -226 1 -83 4 -88
68 -133 22 -16 46 -20 113 -21 50 -1 103 -8 129 -18 24 -9 55 -16 70 -16 14 0
51 -9 81 -21 30 -11 68 -25 85 -31 16 -6 55 -26 86 -44 32 -18 72 -35 89 -39
36 -8 150 -73 150 -86 0 -4 22 -29 50 -55 52 -48 80 -93 80 -127 0 -29 22
-100 36 -117 7 -9 13 -64 16 -142 5 -120 6 -129 33 -165 15 -21 35 -44 43 -50
9 -7 12 -16 9 -20 -4 -3 -18 4 -32 17 -31 30 -55 20 -56 -22 0 -18 -5 -82 -11
-143 -6 -60 -12 -146 -13 -190 -1 -44 -7 -91 -12 -105 -21 -52 -33 -97 -33
-126 -1 -16 -7 -42 -15 -59 -14 -28 -14 -23 -8 60 4 50 7 103 7 120 l1 30
-170 1 c-93 0 -175 -2 -182 -4 -6 -2 -14 -15 -18 -29 l-6 -26 -24 23 c-29 27
-51 22 -120 -30 -27 -21 -79 -53 -115 -72 -74 -38 -81 -54 -56 -121 15 -39 15
-40 0 -19 -9 12 -27 22 -39 22 -28 0 -49 24 -41 46 9 24 -40 114 -116 211 -38
48 -79 104 -90 123 -24 40 -68 90 -80 90 -4 0 -25 -24 -46 -52 -22 -29 -54
-69 -72 -88 -18 -19 -43 -51 -55 -70 -55 -85 -157 -138 -152 -79 1 10 7 19 14
19 26 0 163 132 189 183 8 15 19 27 24 27 6 0 10 6 10 14 0 7 6 19 14 25 8 7
18 26 21 42 4 16 11 29 16 29 17 0 9 41 -14 75 -31 45 -272 295 -285 295 -5 0
-20 -19 -31 -41 -12 -23 -29 -48 -37 -56 -8 -8 -27 -31 -42 -51 -15 -21 -43
-53 -62 -72 -19 -20 -43 -47 -52 -60 -12 -18 -17 -21 -17 -9 -1 9 8 28 19 42
11 14 20 28 20 31 0 8 51 87 67 104 7 7 13 21 13 31 0 10 3 21 7 25 11 10 12
36 2 36 -5 0 -9 -9 -9 -20 0 -11 -7 -20 -15 -20 -23 0 -65 -46 -65 -70 0 -27
-26 -56 -33 -37 -3 6 -6 -1 -6 -16 -1 -30 -21 -57 -42 -57 -7 0 -10 -3 -6 -6
3 -3 -5 -17 -18 -30 -28 -28 -55 -22 -55 12 0 20 5 24 30 24 17 0 30 5 30 10
0 6 9 10 20 10 11 0 20 5 20 11 0 6 -6 9 -12 6 -7 -3 -21 -8 -30 -12 -11 -4
-18 -3 -18 4 0 6 -8 11 -18 11 -19 0 -42 18 -42 32 0 4 19 8 43 8 l43 0 -4 40
c-4 38 -6 40 -39 40 -26 0 -36 5 -40 20 -10 37 -23 21 -23 -27 l0 -47 -37 42
c-36 42 -50 72 -32 72 5 0 9 7 9 16 0 9 14 29 30 44 17 15 30 38 30 50 0 12 6
28 14 36 16 16 91 20 81 4 -4 -6 8 -10 29 -10 20 0 36 -4 36 -10 0 -5 9 -10
20 -10 11 0 20 -4 20 -10 0 -5 10 -10 23 -10 18 0 19 -2 7 -10 -11 -7 -7 -10
18 -10 17 0 32 -5 32 -11 0 -5 5 -7 10 -4 6 4 10 -7 10 -24 0 -36 23 -42 40
-12 21 40 12 68 -32 104 -52 41 -252 140 -276 135 -11 -2 -17 -13 -17 -30 -1
-14 -7 -33 -14 -42 -12 -14 -10 -16 10 -16 18 0 20 -3 11 -12 -17 -17 -42 -18
-42 -2 0 27 -22 2 -49 -56 -28 -59 -52 -90 -69 -90 -5 0 -13 -11 -16 -24 -3
-14 -15 -28 -26 -31 -11 -4 -18 -10 -15 -15 9 -15 -16 -23 -28 -10 -9 10 -9
11 1 6 12 -7 15 2 13 40 -1 11 10 32 24 47 19 18 28 39 31 69 2 24 1 34 -3 23
-3 -11 -14 -27 -24 -36 -11 -9 -19 -25 -20 -35 0 -11 -3 -13 -6 -7 -3 8 -23
-6 -53 -37 -27 -28 -52 -46 -55 -40 -3 5 -2 10 2 10 5 0 9 9 10 20 1 11 -2 20
-8 20 -5 0 -9 -7 -9 -17 0 -15 -1 -15 -18 0 -10 10 -33 17 -50 17 -19 0 -32 5
-32 13 0 8 -4 7 -10 -3 -8 -13 -10 -12 -10 3 0 20 22 47 40 47 6 0 27 16 46
35 30 31 33 37 21 50 -11 10 -17 11 -25 3 -7 -7 -15 -8 -19 -4 -4 4 -1 11 7
16 13 8 12 10 -3 10 -24 0 -77 -28 -77 -40 0 -6 -9 -19 -20 -30 -11 -11 -20
-29 -20 -40 0 -10 -6 -23 -14 -27 -21 -12 -78 -101 -105 -163 -65 -154 -67
-162 -65 -245 2 -59 -1 -73 -21 -97 -13 -15 -25 -33 -27 -40 -4 -10 -10 -9
-29 3 -32 20 -89 24 -89 6 0 -7 -15 -27 -33 -43 -19 -16 -36 -36 -40 -44 -4
-11 -6 -10 -6 4 -1 10 7 25 17 33 15 13 15 14 0 9 -9 -3 -19 0 -22 7 -3 9 -5
8 -5 -1 -1 -7 -5 -11 -10 -7 -11 6 -25 -30 -17 -44 3 -5 0 -14 -8 -20 -7 -6
-21 -33 -31 -59 -9 -26 -23 -61 -30 -77 -8 -17 -17 -55 -21 -85 -4 -30 -13
-69 -21 -87 -7 -18 -13 -46 -13 -63 0 -61 -12 -70 -88 -64 -105 9 -132 20
-132 54 0 16 5 32 11 35 7 5 3 12 -9 20 -12 9 -63 16 -148 19 -71 2 -152 8
-181 11 -43 6 -54 4 -71 -13 -17 -17 -22 -51 -13 -92 0 -3 40 -4 88 -3 92 2
123 -7 123 -35 0 -18 -56 -52 -86 -52 -8 0 -36 -11 -62 -24 -74 -37 -142 -58
-206 -61 -65 -4 -76 -13 -76 -62 0 -23 6 -33 19 -38 26 -8 62 -70 54 -93 -15
-43 -45 -62 -98 -62 -40 0 -56 -5 -71 -21 -35 -39 -51 -42 -77 -13 -32 34 -44
25 -53 -34 -3 -26 -10 -54 -14 -62 -8 -15 -94 -39 -141 -40 -15 0 -32 -7 -39
-15 -6 -8 -39 -22 -72 -32 -51 -15 -62 -23 -74 -51 -13 -33 -36 -447 -33 -613
1 -60 -2 -82 -15 -94 -21 -21 -22 -123 -1 -151 21 -28 19 -97 -6 -139 -20 -34
-23 -35 -40 -19 -13 12 -34 15 -86 13 -37 -1 -75 0 -83 3 -8 3 -36 13 -62 23
-26 9 -61 28 -76 42 -29 25 -29 25 -24 123 4 91 3 99 -16 109 -17 9 -21 7 -30
-17 -5 -15 -7 -67 -4 -115 l5 -88 -42 -16 c-22 -9 -41 -22 -41 -30 0 -16 -66
-18 -76 -2 -4 7 -20 8 -43 4 -99 -17 -132 -17 -152 1 -11 10 -19 30 -19 48 -1
75 -16 79 -369 72 -177 -4 -310 -10 -322 -16 -18 -10 -19 -23 -19 -177 0 -161
1 -167 24 -198 l25 -32 166 -1 c92 -1 171 -5 176 -8 18 -11 10 -56 -12 -61
-16 -5 -20 -12 -17 -34 3 -16 0 -31 -6 -33 -6 -2 -3 -5 7 -5 11 -1 20 -12 23
-31 5 -23 12 -30 30 -30 12 0 25 -4 28 -9 3 -4 19 -11 35 -14 57 -12 84 -74
40 -97 -24 -14 -248 -26 -504 -29 -104 -1 -217 -4 -250 -7 -81 -7 -120 5 -119
37 0 13 4 34 8 46 6 19 3 23 -18 29 -14 3 -26 10 -26 15 0 5 -8 9 -18 9 -14 0
-17 9 -17 48 0 43 2 47 25 51 14 1 28 8 33 15 4 7 10 8 15 1 4 -5 12 -10 17
-10 6 -1 32 -5 59 -9 45 -8 50 -7 72 19 13 16 24 29 24 29 0 1 -7 23 -15 50
-18 57 -49 96 -79 96 -11 0 -40 8 -62 17 -51 21 -51 24 -48 213 2 110 -1 140
-14 162 -17 30 -46 30 -68 2 -20 -25 -153 -43 -331 -46 l-173 -3 0 -652 0
-653 53 -1 c76 -2 448 3 477 6 86 8 499 19 885 22 248 2 495 4 550 6 55 1 195
1 310 0 213 -3 298 -1 940 21 124 4 907 19 1070 20 l120 1 3 -56 c2 -39 -5
-79 -23 -134 -14 -42 -25 -93 -25 -112 0 -19 -9 -53 -19 -76 -10 -23 -21 -60
-24 -82 -3 -22 -12 -58 -21 -80 -8 -22 -15 -50 -16 -62 0 -17 -6 -23 -22 -23
-34 0 -42 -9 -80 -85 -24 -47 -34 -80 -31 -99 4 -31 -16 -54 -29 -33 -5 7 -8
1 -8 -16 0 -19 -4 -26 -12 -21 -8 5 -9 0 -5 -15 3 -14 0 -24 -9 -28 -9 -3 -12
-13 -8 -29 7 -28 -17 -57 -45 -52 -25 4 -104 -91 -130 -156 -10 -23 -14 -26
-26 -16 -9 7 -15 8 -15 2 0 -5 7 -16 17 -23 13 -11 17 -11 20 -1 3 6 13 12 24
12 10 0 19 5 19 10 0 6 5 10 10 10 6 0 10 -9 10 -20 0 -11 -4 -20 -10 -20 -5
0 -10 -9 -10 -20 0 -11 -4 -20 -10 -20 -5 0 -10 -9 -10 -20 0 -16 -7 -20 -32
-20 -26 0 -30 -3 -18 -11 12 -8 12 -12 2 -16 -7 -3 -24 -16 -38 -30 -20 -20
-23 -28 -13 -39 10 -12 9 -13 -5 -8 -9 3 -16 10 -16 15 0 5 -9 9 -20 9 -13 0
-20 -7 -20 -20 0 -11 6 -20 13 -20 8 0 7 -4 -3 -10 -13 -9 -13 -10 0 -10 18 0
25 -45 10 -55 -6 -4 -17 0 -25 9 -11 11 -12 15 -2 19 6 2 8 8 4 13 -5 5 -15 0
-22 -11 -8 -11 -19 -25 -25 -32 -17 -20 -12 -25 19 -18 23 5 30 2 35 -13 10
-30 -14 -72 -43 -78 -40 -9 -64 -22 -105 -60 -20 -19 -41 -34 -45 -34 -4 0
-16 -9 -26 -20 -10 -11 -24 -20 -31 -20 -7 0 -21 -11 -32 -25 -11 -14 -27 -25
-36 -25 -9 0 -19 -7 -22 -15 -4 -8 -12 -15 -20 -15 -8 0 -14 -7 -14 -15 0 -8
-7 -15 -16 -15 -9 0 -32 -16 -52 -36 -19 -19 -47 -41 -61 -49 -14 -7 -37 -25
-51 -40 -14 -15 -49 -42 -78 -61 -29 -19 -55 -42 -59 -52 -3 -9 -13 -25 -21
-34 -14 -17 -13 -18 15 -18 22 0 32 6 36 20 3 11 14 20 25 20 10 0 29 13 41
29 13 16 47 41 76 55 30 14 61 36 70 50 9 13 29 30 46 36 16 7 44 30 62 50 18
21 49 45 70 53 20 9 58 35 83 59 56 53 67 60 123 74 47 13 81 3 81 -24 0 -7 9
-22 20 -34 11 -12 20 -28 20 -35 0 -7 5 -13 10 -13 6 0 10 7 10 17 0 18 -48
121 -61 129 -4 2 -6 11 -2 20 5 13 8 13 22 -3 10 -10 24 -33 31 -50 8 -18 27
-38 42 -44 16 -6 28 -15 28 -20 0 -5 14 -9 30 -9 17 0 30 -4 30 -10 0 -5 -14
-10 -31 -10 l-31 0 23 -19 c20 -16 21 -21 10 -35 -7 -9 -22 -16 -31 -16 -13 0
-24 -15 -36 -48 -19 -51 -34 -67 -45 -50 -8 13 -39 -13 -39 -32 0 -6 -11 -22
-25 -36 -14 -14 -25 -29 -25 -34 0 -5 -11 -20 -25 -34 -37 -37 -33 -56 13 -56
40 0 52 10 102 80 13 19 30 41 37 48 7 7 13 17 13 21 0 4 19 17 41 29 41 22
43 22 85 6 24 -9 44 -22 44 -29 0 -6 10 -21 23 -33 21 -20 49 -67 61 -104 7
-23 66 -25 66 -3 0 8 5 15 10 15 6 0 10 -7 10 -15 0 -23 43 -18 58 6 15 24 12
29 -17 32 -14 1 -24 12 -31 33 -6 18 -22 45 -35 60 -14 16 -25 34 -25 41 0 6
-13 17 -30 25 -16 7 -30 19 -30 26 0 13 -23 42 -34 42 -3 0 -6 -8 -6 -17 0
-16 -2 -16 -11 -3 -9 12 -10 10 -6 -8 3 -14 1 -22 -5 -20 -6 2 -12 12 -14 23
-1 10 -8 21 -14 25 -9 6 -9 13 1 31 12 24 25 39 107 128 78 85 82 90 82 103 0
8 9 20 20 28 11 8 20 22 20 32 0 10 3 18 8 18 4 0 18 21 32 48 14 26 30 53 37
60 7 7 13 17 13 22 0 19 100 110 120 110 20 0 50 -21 50 -35 0 -4 11 -16 25
-27 14 -11 25 -28 25 -39 0 -10 4 -19 9 -19 5 0 12 -8 15 -17 11 -30 50 -97
73 -127 l23 -28 10 26 c5 14 7 32 4 39 -2 7 6 19 18 26 19 9 23 20 23 56 0 30
-4 45 -12 45 -8 0 -13 12 -13 30 0 17 -4 30 -10 30 -5 0 -10 7 -10 16 0 18
-23 44 -40 44 -17 0 -100 88 -100 107 0 15 -2 16 -10 3 -7 -11 -10 3 -10 48 0
35 4 62 10 62 6 0 10 9 10 20 0 22 16 27 23 8 2 -8 8 -9 13 -4 5 5 4 11 -3 13
-16 6 -18 123 -2 123 5 0 7 -5 4 -10 -3 -6 1 -10 9 -10 9 0 16 9 16 20 0 11
-4 20 -10 20 -5 0 -7 7 -3 16 3 8 12 13 19 10 9 -3 14 2 14 14 0 10 9 22 20
25 11 3 20 13 20 21 0 27 32 14 76 -33 40 -42 48 -62 47 -110 -1 -7 3 -13 8
-13 17 0 9 -46 -11 -60 -17 -13 -20 -26 -20 -102 0 -81 -2 -88 -20 -88 -16 0
-20 -7 -20 -30 0 -41 -20 -38 -21 3 -1 22 -3 25 -6 10 -2 -12 -13 -25 -23 -28
-26 -8 -14 -35 15 -35 13 0 37 8 54 18 26 14 31 23 31 57 1 38 1 39 14 17 9
-18 10 -37 4 -75 -5 -29 -11 -77 -13 -107 -2 -30 -7 -71 -10 -91 -5 -31 -3
-39 21 -58 15 -11 33 -21 40 -21 15 0 140 -65 164 -85 27 -22 66 -26 81 -8 17
19 48 119 59 188 l8 50 -3 -55 c-3 -64 -11 -110 -27 -162 -16 -53 -2 -66 73
-67 33 0 67 -4 77 -9 9 -5 58 -15 107 -22 50 -6 104 -16 122 -22 18 -5 40 -8
50 -7 10 1 39 -4 66 -11 l47 -12 -34 -32 -35 -31 -7 -167 -7 -168 222 0 221 0
0 78 c-1 118 -24 248 -50 284 -18 25 -20 34 -11 54 13 30 18 29 55 -1 28 -22
29 -26 19 -59 -7 -22 -8 -50 -3 -73 16 -75 30 -184 30 -233 l0 -50 255 0 c246
0 255 1 255 20 0 10 -4 29 -9 42 -16 40 -41 130 -41 145 0 31 25 5 32 -33 16
-85 21 -104 29 -110 5 -3 9 -18 9 -35 l0 -29 310 0 c263 0 310 2 310 14 0 8
-5 18 -10 21 -6 3 -19 25 -30 48 -23 48 -35 69 -67 114 -13 17 -23 41 -23 53
0 18 9 11 45 -31 25 -29 45 -58 45 -65 0 -7 18 -36 40 -65 22 -30 40 -61 40
-71 0 -10 4 -18 9 -18 12 0 79 46 136 95 28 23 69 54 92 68 51 32 66 58 61
103 -3 23 0 34 9 34 7 0 13 5 13 11 0 6 -7 8 -16 5 -25 -10 -95 64 -87 93 3
13 2 26 -3 30 -11 8 -34 71 -34 95 0 10 -7 25 -16 33 -13 14 -17 14 -26 2 -7
-10 -8 -5 -4 19 4 21 2 32 -7 32 -8 0 -7 4 3 10 13 8 12 10 -3 10 -23 0 -67
44 -67 66 0 13 3 14 14 5 7 -6 21 -9 30 -5 9 3 16 1 16 -6 0 -6 4 -8 10 -5 6
3 10 1 10 -6 0 -8 12 -10 39 -5 30 4 45 1 71 -17 18 -12 38 -31 44 -42 20 -35
37 -49 45 -37 11 18 55 -37 57 -70 1 -16 -3 -28 -9 -28 -6 0 -8 -3 -4 -6 3 -4
0 -22 -8 -41 -8 -20 -15 -51 -15 -69 0 -24 -5 -34 -15 -34 -16 0 -21 -45 -7
-68 8 -12 79 -52 94 -52 4 0 8 9 8 20 0 11 5 20 10 20 6 0 10 14 10 30 0 17 5
30 10 30 6 0 10 17 10 39 0 48 22 71 51 53 10 -7 27 -12 37 -12 11 0 27 -10
38 -21 23 -26 160 -139 168 -139 7 0 91 -62 126 -93 14 -12 46 -34 70 -49 25
-14 54 -35 64 -47 23 -25 56 -28 56 -4 0 9 -29 44 -64 77 -78 75 -117 105
-181 141 -27 16 -63 41 -79 57 -17 16 -42 36 -58 44 -15 8 -28 19 -28 24 0 6
-6 10 -12 10 -7 0 -37 25 -67 55 -37 37 -66 57 -88 61 -27 5 -35 12 -40 35 -3
17 -20 40 -42 56 -43 33 -181 173 -181 184 0 4 4 10 10 14 5 3 7 12 3 20 -4
11 -1 13 11 9 21 -8 32 22 15 42 -24 29 44 3 75 -29 16 -16 39 -29 52 -29 19
0 24 -6 24 -24 0 -13 6 -24 13 -24 8 0 7 -4 -3 -11 -11 -8 -12 -12 -2 -16 19
-8 15 -63 -5 -63 -22 0 -5 -17 22 -22 18 -3 20 3 21 57 2 41 -2 65 -12 76 -11
12 -13 28 -9 55 10 61 16 75 26 69 5 -4 9 -1 9 5 0 6 5 8 10 5 6 -3 10 -15 10
-26 0 -20 16 -27 22 -9 2 7 15 7 38 0 19 -5 52 -10 72 -10 21 0 53 -9 72 -19
35 -20 46 -24 195 -62 47 -11 94 -27 106 -35 12 -8 46 -21 76 -29 30 -9 64
-21 76 -27 29 -14 38 -6 23 22 -9 17 -8 25 4 39 21 23 14 41 -27 67 -33 22
-164 51 -176 38 -3 -4 -1 -8 4 -10 6 -2 25 -14 44 -25 52 -31 20 -43 -50 -19
-30 10 -88 28 -129 40 -87 26 -144 49 -138 55 2 3 31 0 64 -5 106 -18 111 -9
14 22 -52 16 -104 34 -115 38 -99 41 -183 62 -232 56 -50 -6 -52 -5 -82 33
-17 21 -31 44 -31 51 0 6 -4 8 -10 5 -5 -3 -10 -2 -10 3 0 5 -12 15 -27 23
-30 15 -101 66 -118 85 -5 6 -20 18 -32 26 -26 17 -173 149 -212 190 -141 148
-163 190 -169 331 -4 104 -4 109 20 135 14 15 35 45 48 67 13 22 40 59 61 81
20 23 49 61 64 84 l27 42 51 -6 c44 -6 256 5 377 19 19 2 114 7 210 10 160 5
225 15 257 38 6 4 14 26 18 48 11 62 24 69 113 63 42 -3 113 -10 157 -15 44
-6 233 -12 420 -14 191 -2 366 -8 400 -14 33 -6 170 -11 305 -11 272 -1 488
-13 538 -30 31 -12 32 -13 31 -68 -1 -32 3 -68 9 -82 5 -14 12 -57 16 -95 13
-143 24 -189 51 -213 14 -12 21 -22 15 -22 -6 0 -8 -5 -5 -10 5 -8 11 -7 21 1
18 15 57 -11 90 -59 21 -30 22 -44 23 -294 1 -145 4 -322 7 -393 8 -158 7
-160 -94 -155 -81 4 -136 4 -267 -3 -187 -10 -549 -36 -569 -41 -12 -2 -86 -7
-166 -11 -191 -7 -251 -14 -266 -30 -11 -10 -10 -16 5 -29 10 -9 23 -16 29
-16 7 0 12 -4 12 -9 0 -10 56 -32 63 -24 3 2 35 -9 70 -26 36 -17 72 -31 80
-31 25 0 67 -22 67 -35 0 -21 -12 -24 -27 -9 -21 20 -92 15 -107 -8 -8 -13 -5
-23 14 -43 13 -14 18 -25 12 -25 -6 0 -18 10 -26 21 -13 20 -19 21 -57 11 -26
-7 -49 -7 -59 -2 -9 5 -57 8 -106 6 -80 -3 -92 -1 -119 20 -40 30 -78 44 -96
34 -8 -5 -33 -5 -56 -1 -26 5 -46 4 -52 -2 -16 -16 -13 -57 4 -63 20 -8 19
-24 -1 -24 -9 0 -18 8 -21 19 -3 13 -12 17 -31 14 -51 -6 -268 -6 -291 2 -14
4 -20 12 -17 21 6 16 -62 38 -108 35 -16 -1 -32 2 -35 6 -8 11 -107 63 -120
63 -6 0 -53 20 -104 45 -103 49 -118 53 -137 30 -17 -20 2 -65 27 -66 62 -2
97 -11 126 -34 19 -14 39 -25 46 -25 7 0 9 -5 6 -10 -3 -6 6 -15 22 -21 15 -5
46 -19 68 -29 22 -10 52 -24 68 -29 15 -6 27 -15 27 -21 0 -6 4 -8 10 -5 5 3
10 -3 10 -13 0 -11 3 -34 6 -51 5 -24 3 -31 -10 -31 -11 0 -16 -9 -16 -26 0
-28 35 -68 79 -91 27 -15 43 -17 21 -3 -11 7 -6 10 20 9 29 0 32 -2 15 -10
-16 -7 -13 -8 15 -6 33 2 35 0 38 -32 2 -21 -5 -50 -19 -76 -19 -36 -21 -46
-10 -59 29 -35 39 -19 40 66 1 86 17 128 47 128 12 0 15 -6 9 -22 -7 -23 -18
-161 -11 -143 2 6 9 35 16 65 9 44 18 58 38 68 31 14 92 16 92 2 0 -6 44 -10
113 -10 105 0 119 -2 195 -33 45 -18 79 -36 76 -40 -4 -4 2 -7 14 -7 21 0 92
-35 102 -50 3 -4 19 -15 37 -24 18 -9 36 -24 42 -33 5 -10 12 -17 15 -15 20 8
26 -4 26 -48 0 -46 2 -50 24 -50 18 0 29 10 45 45 32 69 29 90 -21 115 -24 12
-103 52 -177 89 -131 67 -133 68 -97 74 23 4 46 0 64 -9 32 -16 54 -18 68 -4
6 6 21 6 42 1 20 -6 32 -6 32 0 0 5 19 8 43 6 46 -5 97 -25 97 -40 0 -5 10
-17 23 -28 18 -16 20 -20 7 -28 -8 -6 -11 -13 -7 -17 4 -4 14 1 21 12 9 12 11
21 4 25 -12 7 15 19 43 19 16 0 19 -4 14 -22 -4 -13 -13 -33 -21 -45 -8 -12
-14 -40 -14 -61 0 -35 -3 -40 -27 -45 -19 -4 -35 -18 -50 -46 l-21 -41 100 0
c84 0 99 2 89 14 -9 11 -8 15 5 20 11 4 18 0 21 -14 5 -18 14 -20 79 -20 l74
0 0 40 0 40 60 0 60 0 0 -40 0 -40 1530 0 c1486 0 1530 1 1530 19 0 15 -8 18
-39 18 -46 0 -61 8 -61 32 0 27 21 41 62 41 l38 0 0 3545 0 3545 -3470 0
c-3242 0 -3470 -1 -3470 -17z m1245 -1178 c17 -18 39 -48 49 -66 l20 -34 -44
39 c-48 43 -100 100 -100 110 0 13 45 -17 75 -49z m105 -166 c42 -81 67 -413
34 -440 -8 -6 -14 -22 -14 -34 0 -30 -67 -197 -98 -245 -2 -2 -7 2 -11 9 -6 9
2 34 20 70 31 61 59 158 59 205 0 16 8 38 17 48 16 18 16 21 -2 54 -14 27 -19
58 -20 147 0 63 -7 130 -14 154 -12 37 -10 73 3 73 3 0 15 -18 26 -41z m-2510
1 c0 -11 -4 -20 -10 -20 -5 0 -10 -12 -10 -26 0 -14 -4 -23 -10 -19 -9 5 -7
33 6 73 6 20 24 14 24 -8z m240 10 c0 -5 -4 -10 -10 -10 -5 0 -10 5 -10 10 0
6 5 10 10 10 6 0 10 -4 10 -10z m540 -85 c0 -8 4 -15 9 -15 18 0 71 -59 71
-80 0 -23 21 -50 40 -50 14 0 40 -25 40 -39 0 -6 5 -11 10 -11 6 0 10 -17 10
-37 0 -28 -3 -34 -10 -23 -8 13 -10 12 -10 -3 0 -15 -81 -107 -95 -107 -11 0
-4 39 7 42 10 4 8 9 -3 21 -9 9 -19 13 -23 10 -8 -8 -37 18 -30 28 7 12 -26
59 -42 59 -8 0 -14 9 -14 20 0 11 5 20 10 20 6 0 10 5 10 10 0 19 -72 11 -90
-10 -12 -13 -28 -19 -53 -18 -35 1 -55 18 -22 18 27 0 65 47 65 80 0 40 54 98
93 99 18 1 27 -4 27 -14z m1617 -141 c-7 -7 -37 7 -37 17 0 6 9 5 21 -1 11 -7
19 -14 16 -16z m-2397 -49 c16 -19 4 -35 -26 -35 -28 0 -30 -10 -7 -53 23 -42
21 -260 -2 -304 l-15 -28 -1 45 c0 25 -6 123 -12 218 l-12 172 31 0 c17 0 37
-7 44 -15z m820 -150 c0 -8 -4 -15 -10 -15 -5 0 -10 7 -10 15 0 8 5 15 10 15
6 0 10 -7 10 -15z m2008 -36 c-3 -8 -7 -3 -11 10 -4 17 -3 21 5 13 5 -5 8 -16
6 -23z m-2533 -19 c9 -16 20 -30 26 -30 15 0 82 -70 74 -78 -4 -4 -10 -1 -12
6 -3 6 -13 12 -23 12 -17 0 -110 95 -110 112 0 20 31 5 45 -22z m2574 -99 c23
-98 27 -195 10 -238 -22 -53 -72 -154 -80 -159 -17 -10 -20 20 -6 59 33 88 39
135 38 285 0 87 3 150 8 147 5 -3 19 -45 30 -94z m-1789 19 c0 -5 14 -10 30
-10 17 0 30 -4 30 -10 0 -5 7 -10 16 -10 21 0 38 -20 42 -50 2 -14 8 -26 13
-28 12 -5 11 -122 -1 -122 -5 0 -10 -18 -10 -40 0 -33 -3 -40 -20 -40 -11 0
-20 5 -20 10 0 6 5 10 10 10 6 0 10 11 10 24 0 19 -7 26 -30 31 -26 6 -31 12
-36 46 -4 26 -12 39 -23 40 -13 1 -13 2 2 6 21 5 22 36 2 53 -8 7 -15 21 -15
32 0 27 -29 56 -40 39 -5 -10 -9 -9 -13 2 -3 8 -3 18 0 21 10 10 53 7 53 -4z
m-356 -15 c-7 -16 -24 -21 -24 -6 0 8 7 13 27 20 1 1 0 -6 -3 -14z m296 -21
c0 -3 -7 -12 -15 -20 -16 -17 -18 -14 -9 10 6 15 24 23 24 10z m733 -48 c6
-16 -2 -28 -14 -20 -12 7 -11 34 0 34 5 0 11 -6 14 -14z m-1298 -16 c3 -5 1
-10 -4 -10 -6 0 -11 5 -11 10 0 6 2 10 4 10 3 0 8 -4 11 -10z m-195 -110 c0
-51 5 -82 15 -96 14 -19 14 -19 15 2 0 11 6 28 13 38 12 16 17 17 58 5 44 -13
54 -19 90 -51 10 -10 23 -18 28 -18 4 0 28 -17 52 -38 40 -35 85 -60 219 -120
52 -23 167 -102 267 -182 75 -60 95 -74 133 -92 34 -16 208 -161 314 -261 32
-31 36 -38 19 -34 -15 3 -20 1 -16 -9 3 -10 -5 -16 -26 -20 -40 -8 -48 -21
-25 -40 17 -12 17 -13 2 -8 -10 3 -18 1 -18 -5 0 -6 7 -11 15 -11 10 0 15 -10
15 -34 0 -29 -7 -41 -41 -68 -23 -18 -59 -50 -81 -70 -22 -21 -46 -38 -53 -38
-7 0 -35 -18 -63 -40 -27 -22 -53 -40 -57 -40 -4 0 -29 -18 -55 -40 -31 -26
-58 -40 -76 -40 -18 0 -34 -8 -42 -20 -15 -25 -58 -26 -71 -3 -5 10 -12 15
-16 11 -4 -3 -16 1 -27 10 -11 9 -32 27 -46 39 -15 13 -34 23 -42 23 -13 0
-121 101 -171 159 -22 25 -59 140 -56 171 6 42 20 85 31 92 8 5 7 8 -1 8 -7 0
-13 11 -13 24 0 25 -28 36 -89 36 -30 0 -59 32 -80 90 -7 19 -17 44 -21 55 -5
11 -11 31 -14 45 -11 55 -27 116 -37 143 -13 30 -29 36 -29 10 0 -9 -3 -13 -7
-9 -19 19 -34 147 -39 336 -5 187 -4 203 10 186 11 -14 16 -42 16 -96z m400
-56 c134 -62 161 -78 254 -155 23 -19 57 -41 74 -48 19 -8 32 -21 32 -32 0
-10 9 -21 20 -24 11 -3 20 -10 20 -14 0 -5 26 -29 58 -54 93 -74 204 -178 197
-185 -2 -2 -19 8 -38 22 -19 14 -39 26 -44 26 -6 0 -17 7 -24 16 -14 16 -261
184 -272 184 -7 0 -108 66 -127 83 -8 7 -33 24 -55 37 -22 13 -60 39 -85 59
-25 20 -57 44 -72 54 -18 11 -28 26 -28 41 0 32 10 39 34 21 12 -8 37 -23 56
-31z m1751 -9 c-1 -20 -64 -162 -81 -185 -34 -45 -32 -13 4 59 20 39 36 77 36
86 0 20 23 56 33 52 5 -1 8 -7 8 -12z m-1096 -41 c-8 -20 -34 -56 -57 -81 -42
-44 -130 -98 -142 -86 -3 3 -8 -2 -12 -11 -10 -27 -44 -20 -44 9 0 18 7 26 27
31 15 4 46 19 69 34 54 34 154 125 154 140 0 6 4 8 10 5 6 -4 4 -19 -5 -41z
m-1996 -327 c1 -130 -7 -177 -29 -177 -17 0 -20 57 -10 180 6 69 14 172 18
230 l7 105 6 -100 c4 -55 7 -162 8 -238z m3619 281 c48 -158 84 -502 63 -610
-67 -342 -75 -361 -146 -346 -22 5 -61 11 -87 15 -27 3 -48 11 -48 17 0 6 -4
5 -9 -3 -5 -7 -25 -15 -46 -16 -20 -1 -40 -6 -43 -11 -15 -20 -31 -11 -73 39
-24 28 -70 80 -101 115 -32 35 -58 73 -58 83 0 23 44 66 126 125 34 24 73 60
88 78 14 19 35 38 46 41 11 3 20 12 20 19 0 8 7 20 16 27 9 8 25 34 36 59 11
25 27 54 37 65 40 45 131 234 131 271 0 22 19 64 29 64 5 0 14 -15 19 -32z
m-161 -80 c-3 -8 -6 -5 -6 6 -1 11 2 17 5 13 3 -3 4 -12 1 -19z m-17 -5 c0
-24 -17 -49 -26 -40 -4 4 -1 18 6 32 16 30 20 31 20 8z m-2810 -17 c0 -16 -18
-31 -27 -22 -8 8 5 36 17 36 5 0 10 -6 10 -14z m2350 -32 c0 -4 -13 -28 -29
-54 -16 -26 -31 -61 -33 -76 -2 -18 -10 -30 -20 -32 -26 -5 -23 29 7 69 13 19
32 49 42 67 15 29 33 43 33 26z m3716 -10 c88 -37 284 -290 324 -419 7 -22 16
-44 20 -50 4 -5 10 -61 14 -122 3 -62 10 -123 15 -136 11 -29 5 -188 -7 -196
-16 -11 -44 -73 -35 -80 7 -6 8 -15 4 -82 0 -14 -12 -38 -26 -53 -13 -14 -25
-30 -25 -34 -1 -22 -13 -42 -26 -42 -12 0 -19 14 -12 23 1 1 -5 16 -14 32 -33
62 -41 92 -44 150 -1 33 -3 66 -3 73 -1 6 -7 12 -14 12 -9 0 -12 22 -12 86 1
89 -12 136 -51 180 -11 12 -32 38 -49 58 -16 20 -38 36 -48 36 -16 0 -43 47
-33 57 2 3 -9 32 -25 66 -16 34 -29 68 -29 75 0 14 -28 73 -39 82 -9 7 -53 78
-76 122 -17 33 -17 40 -5 78 17 51 61 87 115 93 22 2 41 4 41 5 1 1 19 -5 40
-14z m-3956 -34 c4 -25 0 -40 -9 -40 -13 0 -22 30 -15 52 6 21 21 14 24 -12z
m-150 10 c0 -5 -4 -10 -9 -10 -6 0 -13 5 -16 10 -3 6 1 10 9 10 9 0 16 -4 16
-10z m784 -9 c8 -12 -3 -41 -15 -41 -5 0 -9 11 -9 25 0 25 14 34 24 16z
m-2734 -63 c0 -10 -4 -18 -9 -18 -11 0 -21 25 -21 53 1 22 1 22 15 3 8 -11 15
-28 15 -38z m-322 -11 c2 -10 -3 -17 -12 -17 -10 0 -16 9 -16 21 0 24 23 21
28 -4z m2095 -3 c9 -3 17 0 17 6 0 6 5 8 11 4 7 -4 2 -15 -15 -31 -28 -26 -32
-38 -16 -48 6 -4 25 -30 44 -58 18 -29 47 -65 63 -82 34 -33 69 -95 54 -95 -8
0 -24 17 -102 110 -16 19 -38 44 -48 55 -10 11 -22 30 -26 43 -3 12 -16 27
-27 33 -18 10 -24 8 -42 -17 -29 -40 -75 -84 -87 -84 -6 0 -25 -11 -41 -25
-17 -14 -38 -25 -46 -23 -30 6 -23 27 20 58 105 75 161 127 153 140 -17 27 24
33 88 14z m303 -46 c-4 -29 -17 -92 -28 -140 -18 -72 -19 -89 -8 -103 12 -14
15 -14 30 0 9 8 19 12 23 9 7 -7 -16 -75 -39 -113 -16 -28 -13 -68 4 -57 5 3
14 -6 21 -21 10 -21 9 -29 -4 -43 -8 -9 -13 -25 -9 -34 3 -9 2 -16 -4 -16 -5
0 -12 9 -15 20 -3 11 -10 20 -15 20 -19 0 -42 -95 -52 -220 -6 -68 -15 -127
-20 -130 -7 -4 -14 -42 -11 -63 1 -5 6 -5 13 -1 18 12 111 16 137 6 22 -8 22
-9 7 -25 -9 -9 -36 -21 -59 -27 -71 -18 -98 -32 -133 -68 -28 -29 -34 -32 -35
-16 -2 51 -8 65 -34 86 -44 35 -152 69 -195 62 -43 -8 -71 -22 -87 -43 -6 -9
-15 -13 -18 -9 -4 4 11 29 33 55 33 40 39 54 35 78 -3 17 -10 35 -14 41 -13
16 0 24 30 18 23 -5 32 1 55 31 54 71 116 137 207 220 82 76 90 92 72 146 -8
24 -19 48 -24 54 -10 10 48 75 68 75 7 0 13 11 13 24 0 49 46 236 58 236 2 0
2 -24 -2 -52z m154 -34 c-14 -36 -30 -57 -69 -90 l-34 -28 16 30 c24 45 76
114 87 114 6 0 6 -9 0 -26z m-2542 -29 c9 -20 9 -25 -2 -25 -13 0 -26 20 -26
41 0 18 17 8 28 -16z m2430 -120 c-6 -14 -13 -23 -16 -21 -7 7 9 46 18 46 5 0
4 -11 -2 -25z m-2083 -130 c8 -58 1 -81 -15 -55 -13 19 -13 110 -1 110 5 0 13
-25 16 -55z m-299 -174 c3 -20 12 -56 20 -80 17 -55 19 -154 2 -149 -16 6 -35
65 -48 150 -13 90 -14 98 -12 122 3 31 31 0 38 -43z m-296 14 c0 -8 8 -19 18
-24 9 -6 14 -11 10 -11 -3 0 5 -28 19 -62 70 -176 98 -276 91 -333 -3 -33 -5
-28 -101 255 -52 156 -64 206 -48 196 6 -4 11 -13 11 -21z m2646 -72 c7 -10
14 -29 14 -42 0 -14 7 -32 16 -42 9 -10 13 -23 9 -28 -12 -21 -21 -11 -34 39
-7 27 -17 52 -22 56 -10 6 -12 34 -3 34 4 0 13 -8 20 -17z m3208 -12 c20 -99
22 -272 6 -436 -5 -49 -7 -91 -5 -93 2 -2 -1 -16 -7 -31 -6 -14 -11 -39 -12
-55 -1 -20 -7 -30 -18 -32 -10 -1 -18 2 -18 7 0 15 -29 -2 -33 -19 -3 -10 -5
5 -6 31 -1 53 -17 57 -19 6 -2 -63 -55 -56 -69 9 -4 20 -8 96 -7 167 1 120 4
138 34 225 18 52 37 99 41 105 5 5 9 21 9 36 0 22 4 26 25 24 21 -3 25 1 25
21 0 13 5 24 10 24 6 0 10 8 10 18 0 28 28 22 34 -7z m-5174 -130 c22 -21 34
-102 14 -94 -19 7 -74 93 -74 115 0 16 3 17 22 7 12 -6 29 -19 38 -28z m1944
-27 c9 -3 16 -14 16 -24 0 -11 5 -22 10 -25 6 -3 10 -15 10 -26 0 -10 5 -19
10 -19 6 0 10 -5 10 -11 0 -5 -4 -7 -10 -4 -5 3 -10 -1 -10 -9 0 -9 -5 -16
-11 -16 -5 0 -7 -4 -4 -10 4 -6 -12 -10 -39 -10 l-46 0 0 55 c0 30 5 55 10 55
6 0 9 3 8 8 -2 6 21 40 29 42 1 0 8 -3 17 -6z m170 -189 c4 -10 -1 -15 -14
-15 -13 0 -18 5 -14 15 4 8 10 15 14 15 4 0 10 -7 14 -15z m-2384 -30 c0 -8
-4 -15 -10 -15 -5 0 -10 7 -10 15 0 8 5 15 10 15 6 0 10 -7 10 -15z m1970 -45
c0 -5 -2 -10 -4 -10 -3 0 -8 5 -11 10 -3 6 -1 10 4 10 6 0 11 -4 11 -10z
m-1585 -20 c3 -5 1 -10 -4 -10 -6 0 -11 5 -11 10 0 6 2 10 4 10 3 0 8 -4 11
-10z m1235 -9 c0 -13 -26 -32 -33 -24 -14 13 -6 33 13 33 11 0 20 -4 20 -9z
m4826 -108 c-4 -21 -10 -60 -14 -88 -4 -27 -11 -49 -17 -48 -5 0 -9 -3 -7 -8
1 -5 -7 -9 -19 -9 -15 0 -19 -5 -15 -15 3 -8 1 -15 -4 -15 -6 0 -10 5 -10 10
0 6 -11 10 -25 10 -14 0 -25 5 -25 10 0 6 14 10 30 10 23 0 30 5 30 19 0 11 5
23 10 26 6 3 10 15 10 26 0 10 3 19 8 19 10 0 32 50 32 72 0 10 5 18 11 18 7
0 9 -13 5 -37z m-4851 7 c3 -6 -1 -7 -9 -4 -18 7 -21 14 -7 14 6 0 13 -4 16
-10z m-1705 -121 c0 -6 -4 -7 -10 -4 -5 3 -10 11 -10 16 0 6 5 7 10 4 6 -3 10
-11 10 -16z m686 -71 c34 -40 66 -88 58 -88 -14 0 -94 83 -94 97 0 19 14 16
36 -9z m94 -130 c0 -6 -7 -5 -15 2 -8 7 -15 17 -15 22 0 6 7 5 15 -2 8 -7 15
-17 15 -22z m141 -115 c27 -28 49 -57 49 -63 0 -21 -159 121 -160 143 0 16 63
-29 111 -80z m-603 -129 c-4 -3 -12 5 -18 18 -12 22 -12 22 6 6 10 -10 15 -20
12 -24z m765 -58 c6 -16 -2 -28 -14 -20 -12 7 -11 34 0 34 5 0 11 -6 14 -14z
m-607 -63 c31 -33 24 -40 -21 -19 -34 17 -41 26 -28 39 12 12 24 7 49 -20z
m-1189 -39 c27 -7 66 -66 58 -86 -5 -12 -15 -13 -48 -7 -23 4 -44 6 -45 4 -2
-2 -6 -22 -9 -44 -7 -48 -15 -56 -43 -41 -24 13 -26 42 -5 60 8 7 15 19 15 26
0 8 5 14 10 14 6 0 10 9 10 21 0 23 17 59 28 59 4 0 17 -3 29 -6z m1893 -10
c0 -2 -9 -4 -21 -4 -11 0 -18 4 -14 10 5 8 35 3 35 -6z m-3992 -61 c-15 -30
-27 -36 -46 -24 -9 6 -11 19 -7 44 8 41 33 53 53 25 11 -15 11 -23 0 -45z
m3412 -13 c0 -5 -2 -10 -4 -10 -3 0 -8 5 -11 10 -3 6 -1 10 4 10 6 0 11 -4 11
-10z m745 -12 c17 -6 34 -14 39 -19 15 -13 -38 -3 -71 15 -35 17 -46 33 -15
21 9 -4 31 -12 47 -17z m-639 -73 c14 -19 32 -35 39 -35 17 0 95 -79 95 -96 0
-8 -6 -14 -13 -14 -15 0 -107 95 -107 110 0 5 -6 10 -13 10 -13 0 -87 72 -87
84 0 15 61 -27 86 -59z m-1288 -91 c9 -3 2 -18 -23 -49 -42 -51 -72 -58 -106
-24 -53 53 34 103 129 73z m-360 -52 c3 -17 -2 -22 -17 -22 -16 0 -21 6 -21
26 0 33 33 30 38 -4z m2646 -26 c-3 -8 -12 -12 -20 -9 -21 8 -17 23 6 23 13 0
18 -5 14 -14z m-601 -192 c20 -19 40 -34 45 -34 4 0 36 -27 72 -60 36 -33 70
-60 75 -60 6 0 29 -17 51 -38 23 -20 50 -44 61 -52 24 -19 56 -70 49 -77 -14
-14 -57 12 -119 72 -37 36 -103 92 -145 124 -113 87 -186 156 -178 170 9 14
38 0 89 -45z m-4693 -3 c0 -27 -15 -41 -41 -41 -21 0 -29 5 -29 18 0 10 3 22
7 25 10 10 63 8 63 -2z m405 -111 c4 -6 -11 -10 -37 -9 -36 1 -39 2 -18 9 36
11 48 11 55 0z m4908 -317 c-18 -2 -48 -2 -65 0 -18 2 -4 4 32 4 36 0 50 -2
33 -4z m-1684 -412 c9 -6 11 -18 7 -35 -4 -15 -2 -26 4 -26 5 0 10 17 11 38 0
29 2 33 8 17 5 -12 4 -32 -3 -50 -7 -16 -11 -41 -9 -55 3 -37 -4 -64 -25 -88
-20 -23 -52 -30 -52 -11 0 5 -4 7 -10 4 -5 -3 -10 1 -10 9 0 9 -5 16 -11 16
-7 0 -9 12 -5 35 3 19 9 51 12 70 3 19 10 35 15 35 5 0 9 9 9 19 0 27 32 39
59 22z m-149 -128 c0 -27 -3 -34 -11 -26 -7 7 -9 23 -5 37 9 37 16 32 16 -11z
m2936 -137 c3 -13 17 -34 30 -47 13 -12 24 -30 24 -38 -1 -12 -3 -11 -12 4
-15 26 -29 39 -56 54 -25 13 -30 51 -7 51 8 0 17 -11 21 -24z m-2940 -50 c8
-8 14 -22 14 -30 0 -9 5 -16 10 -16 6 0 10 -22 10 -50 0 -27 -4 -50 -10 -50
-5 0 -10 -13 -10 -30 0 -16 -4 -30 -10 -30 -5 0 -10 -6 -10 -13 0 -8 -8 -22
-19 -31 -10 -9 -21 -30 -24 -45 -3 -16 -13 -36 -22 -44 -8 -9 -15 -23 -15 -31
0 -9 -4 -16 -10 -16 -5 0 -10 -9 -10 -20 0 -12 -9 -22 -24 -26 -16 -4 -23 -11
-19 -20 3 -8 0 -14 -6 -14 -6 0 -11 -9 -11 -20 0 -11 -4 -20 -10 -20 -5 0 -10
-8 -10 -18 0 -10 -9 -24 -20 -32 -11 -8 -20 -20 -20 -27 0 -8 -20 -34 -45 -58
-40 -40 -49 -45 -90 -45 -26 0 -44 4 -40 9 3 5 -2 16 -10 24 -8 9 -15 26 -15
39 0 13 -9 30 -20 38 -13 9 -20 26 -20 48 0 27 10 43 50 82 28 27 50 51 50 53
0 6 62 76 118 133 23 24 42 48 42 54 0 6 14 24 30 42 17 17 30 37 30 44 0 8 9
14 20 14 13 0 20 7 20 18 0 10 9 24 20 32 11 8 20 21 20 29 0 14 28 40 43 41
5 0 15 -6 23 -14z m3011 -68 c-3 -8 -6 -5 -6 6 -1 11 2 17 5 13 3 -3 4 -12 1
-19z m-2937 -8 c0 -25 17 -26 23 -2 4 13 5 11 6 -5 1 -14 -5 -23 -14 -23 -8 0
-15 -4 -15 -10 0 -5 -4 -10 -10 -10 -5 0 -10 16 -10 35 0 19 5 35 10 35 6 0
10 -9 10 -20z m-380 -60 c0 -5 -4 -10 -10 -10 -5 0 -10 5 -10 10 0 6 5 10 10
10 6 0 10 -4 10 -10z m3510 -30 c6 -11 8 -30 5 -43 -5 -19 -12 -23 -31 -19
-15 3 -24 11 -24 22 0 10 -5 20 -12 22 -9 3 -8 9 2 21 20 22 47 21 60 -3z
m-3483 -32 c-3 -8 -6 -5 -6 6 -1 11 2 17 5 13 3 -3 4 -12 1 -19z m1150 -100
c-3 -8 -6 -5 -6 6 -1 11 2 17 5 13 3 -3 4 -12 1 -19z m1969 -2 c19 -20 18 -36
-3 -36 -28 0 -47 16 -40 34 8 20 24 20 43 2z m-3279 -68 c-3 -8 -6 -5 -6 6 -1
11 2 17 5 13 3 -3 4 -12 1 -19z m3029 -165 c-11 -11 -19 6 -11 24 8 17 8 17
12 0 3 -10 2 -21 -1 -24z m1805 27 c5 0 9 -40 9 -90 0 -74 3 -91 18 -99 14 -8
9 -10 -22 -11 -31 0 -37 3 -28 12 7 7 12 43 12 90 0 63 -3 78 -15 78 -8 0 -15
7 -15 16 0 11 5 14 16 10 9 -3 20 -6 25 -6z m669 -16 c0 -8 -7 -14 -15 -14
-15 0 -21 21 -9 33 10 9 24 -2 24 -19z m-5563 -6 c-3 -8 -6 -5 -6 6 -1 11 2
17 5 13 3 -3 4 -12 1 -19z m4430 10 c4 -7 9 -33 11 -58 1 -24 6 -48 11 -53 11
-11 43 22 37 39 -4 10 3 14 27 13 18 0 25 -3 17 -6 -44 -16 -51 -63 -15 -98
16 -17 19 -25 10 -25 -8 0 -24 14 -37 30 -12 17 -28 30 -36 30 -11 0 -13 -8
-8 -30 5 -28 3 -30 -24 -30 -28 0 -41 14 -21 22 4 2 11 36 15 76 6 60 5 73 -8
78 -9 3 -16 10 -16 15 0 13 28 11 37 -3z m571 -48 c2 -30 7 -59 12 -64 14 -14
42 14 37 36 -4 14 1 18 24 18 l30 0 -28 -24 c-24 -21 -26 -27 -18 -52 6 -16
22 -34 35 -41 l25 -13 -23 0 c-15 0 -29 10 -40 30 -9 16 -25 30 -36 30 -15 0
-17 -6 -14 -30 4 -28 2 -30 -26 -30 -26 1 -28 2 -13 11 23 14 26 156 2 165
-23 9 -18 26 8 22 19 -3 22 -10 25 -58z m463 -7 c2 -98 5 -114 20 -124 10 -6
2 -9 -23 -9 -21 0 -38 5 -38 11 0 5 5 7 10 4 6 -4 10 24 10 76 0 66 -3 84 -17
95 -16 12 -15 13 10 14 27 0 27 -1 28 -67z m179 3 c6 -66 17 -77 45 -46 16 18
17 23 5 30 -11 7 -5 10 20 10 28 -1 32 -3 18 -11 -33 -19 -41 -47 -22 -79 10
-16 25 -31 33 -33 10 -3 7 -5 -6 -6 -15 -1 -27 8 -38 29 -17 34 -55 42 -55 12
0 -10 5 -23 12 -30 9 -9 4 -12 -22 -11 -19 0 -29 3 -22 6 8 3 12 30 12 85 0
65 -3 84 -17 95 -17 12 -16 13 7 11 23 -3 25 -8 30 -62z m177 29 c2 -27 1 -27
-5 -6 -4 13 -16 28 -27 32 -17 8 -17 8 5 6 20 -2 25 -8 27 -32z m-4027 -22
c-1 -36 -3 -44 -10 -31 -9 14 -3 78 6 78 2 0 4 -21 4 -47z m2905 -13 c6 -5 17
-5 25 0 26 17 69 11 80 -9 5 -11 10 -40 10 -65 0 -26 5 -46 13 -49 6 -3 -4 -6
-22 -6 -27 -1 -32 2 -23 11 7 7 12 31 12 54 0 43 -10 54 -52 54 -18 0 -19 -5
-16 -60 3 -54 1 -60 -17 -60 -18 0 -20 7 -20 57 0 58 0 58 -30 58 -28 0 -30
-3 -33 -43 -2 -24 2 -50 9 -58 10 -12 5 -14 -27 -14 -33 1 -36 3 -23 13 27 21
32 74 9 97 -11 11 -20 21 -20 23 0 7 116 5 125 -3z m665 -10 c5 -8 10 -34 10
-57 0 -29 5 -45 18 -52 14 -8 9 -10 -22 -11 -32 0 -37 2 -27 14 7 8 11 34 9
58 -3 40 -5 43 -33 43 -30 0 -30 0 -30 -58 0 -54 -1 -57 -24 -57 -20 0 -22 3
-13 12 17 17 15 83 -3 98 -8 7 -25 10 -40 6 -22 -6 -25 -12 -25 -49 0 -24 5
-48 12 -55 9 -9 5 -12 -20 -12 -18 0 -32 5 -32 10 0 6 5 10 10 10 17 0 12 90
-5 96 -33 13 -2 19 99 19 84 0 109 -3 116 -15z m200 -71 c0 -94 -10 -119 -48
-119 l-27 1 28 15 c26 14 27 18 27 89 0 60 -3 76 -17 84 -15 9 -14 10 10 11
l27 0 0 -81z m273 -41 c7 -4 -4 -8 -23 -8 -29 1 -32 2 -17 11 11 7 18 24 19
52 l1 42 4 -45 c3 -24 10 -48 16 -52z m-1923 32 c0 -10 -5 -22 -10 -25 -13 -8
-24 20 -16 41 8 20 26 9 26 -16z m1223 -107 c-7 -2 -19 -2 -25 0 -7 3 -2 5 12
5 14 0 19 -2 13 -5z m-1873 -23 c23 -23 25 -30 7 -30 -8 0 -19 11 -25 25 -14
30 -9 32 18 5z m350 -100 c0 -5 -4 -10 -10 -10 -5 0 -10 5 -10 10 0 6 5 10 10
10 6 0 10 -4 10 -10z m-3310 -10 c0 -5 -4 -10 -10 -10 -5 0 -10 5 -10 10 0 6
5 10 10 10 6 0 10 -4 10 -10z"/>
<path d="M5820 5210 c0 -5 5 -10 10 -10 6 0 10 5 10 10 0 6 -4 10 -10 10 -5 0
-10 -4 -10 -10z"/>
<path d="M4971 4814 c0 -11 3 -14 6 -6 3 7 2 16 -1 19 -3 4 -6 -2 -5 -13z"/>
<path d="M4971 4773 c0 -10 4 -27 9 -38 7 -16 9 -12 8 18 -1 20 -6 37 -10 37
-4 0 -8 -8 -7 -17z"/>
<path d="M6553 4088 c-91 -94 -123 -130 -123 -137 0 -4 -9 -16 -21 -27 -12
-10 -35 -36 -52 -57 -39 -50 -35 -53 136 -87 44 -9 47 -5 67 85 7 33 19 82 26
109 8 27 14 62 14 77 0 15 4 29 9 31 5 2 13 15 16 31 11 43 -14 34 -72 -25z
m-76 -188 c1 -11 -2 -20 -8 -20 -10 0 -12 23 -2 33 9 9 9 10 10 -13z m51 -22
c16 -16 15 -38 -2 -38 -13 0 -26 20 -26 41 0 13 14 11 28 -3z"/>
<path d="M4390 1380 c0 -6 7 -10 15 -10 8 0 15 2 15 4 0 2 -7 6 -15 10 -8 3
-15 1 -15 -4z"/>
<path d="M5376 6551 c-20 -8 -20 -8 0 -12 35 -8 114 -4 116 6 4 12 -89 17
-116 6z"/>
<path d="M5565 6501 c-7 -12 51 -41 83 -41 28 0 120 -53 171 -99 40 -36 51
-38 51 -12 0 11 -15 31 -32 45 -18 15 -38 31 -45 36 -26 21 -181 80 -211 80
-6 0 -13 -4 -17 -9z"/>
<path d="M6135 6349 c-121 -13 -145 -20 -145 -38 0 -15 10 -16 83 -12 186 12
470 -4 501 -27 6 -5 30 -14 53 -22 24 -7 45 -20 48 -30 3 -11 16 -16 39 -16
37 0 66 -22 66 -51 0 -15 2 -15 10 -3 5 8 5 19 1 25 -4 5 -13 28 -19 50 -13
44 -52 80 -105 96 -91 27 -395 43 -532 28z"/>
<path d="M5875 6261 c-17 -4 -50 -22 -74 -39 -24 -18 -49 -32 -56 -32 -7 0
-23 -8 -36 -19 -24 -18 -37 -26 -154 -91 -77 -42 -93 -61 -87 -100 2 -16 8
-30 13 -30 5 0 9 -7 9 -15 0 -8 13 -21 30 -30 33 -17 52 -20 30 -4 -11 8 -12
12 -2 16 6 2 12 16 12 30 0 29 44 73 73 73 10 0 44 26 75 58 31 32 65 61 75
65 10 4 16 11 13 15 -3 5 14 17 37 27 23 10 45 23 49 29 14 22 59 -13 80 -64
11 -28 27 -50 35 -50 8 0 12 -4 9 -8 -3 -5 4 -15 15 -22 10 -8 19 -22 19 -32
0 -10 5 -18 10 -18 6 0 10 -9 10 -20 0 -11 5 -20 10 -20 6 0 10 -9 10 -20 0
-11 5 -20 10 -20 6 0 10 -13 10 -29 0 -16 6 -32 13 -35 10 -5 10 -7 0 -12 -7
-3 -13 -14 -13 -24 0 -10 -6 -21 -12 -23 -7 -3 7 -6 33 -6 25 -1 50 4 57 11
14 14 16 59 4 74 -5 5 -14 28 -22 51 -7 23 -37 74 -66 113 -30 39 -54 75 -54
79 0 4 -9 16 -20 26 -11 10 -33 38 -48 62 -28 45 -38 48 -97 34z"/>
<path d="M5140 6221 c0 -11 5 -23 10 -26 6 -4 10 5 10 19 0 14 -4 26 -10 26
-5 0 -10 -9 -10 -19z"/>
<path d="M4740 6210 c-41 -5 -45 -8 -51 -37 -3 -18 -12 -40 -19 -48 -7 -9 -10
-19 -6 -22 4 -4 10 -3 14 2 19 27 142 47 142 24 0 -5 -4 -7 -10 -4 -5 3 -10
-1 -10 -9 0 -9 8 -16 19 -16 11 0 21 -5 23 -11 7 -20 47 -1 41 20 -3 10 0 22
6 25 6 4 11 3 11 -2 0 -5 11 -12 24 -14 31 -6 69 39 55 65 -14 24 -140 38
-239 27z"/>
<path d="M5540 6129 c0 -5 5 -7 10 -4 6 3 10 8 10 11 0 2 -4 4 -10 4 -5 0 -10
-5 -10 -11z"/>
<path d="M6802 6115 c0 -16 2 -22 5 -12 2 9 2 23 0 30 -3 6 -5 -1 -5 -18z"/>
<path d="M4740 6110 c0 -5 5 -10 10 -10 6 0 10 5 10 10 0 6 -4 10 -10 10 -5 0
-10 -4 -10 -10z"/>
<path d="M5372 6081 c9 -15 19 -18 42 -14 44 8 45 13 3 13 -20 0 -37 5 -37 10
0 6 -5 10 -10 10 -6 0 -5 -8 2 -19z"/>
<path d="M4881 6051 c-1 -27 2 -32 11 -23 8 8 8 17 0 34 -10 22 -11 21 -11
-11z"/>
<path d="M6200 6030 c0 -5 5 -10 10 -10 6 0 10 5 10 10 0 6 -4 10 -10 10 -5 0
-10 -4 -10 -10z"/>
<path d="M6819 6008 c-1 -31 -1 -32 -9 -8 -8 24 -8 23 -9 -7 -1 -23 4 -33 14
-33 11 0 15 11 15 40 0 48 -10 54 -11 8z"/>
<path d="M6235 5980 c10 -11 20 -18 23 -16 5 6 -23 36 -34 36 -4 0 1 -9 11
-20z"/>
<path d="M6260 5929 c0 -6 7 -9 15 -5 13 4 14 2 5 -14 -9 -16 -8 -18 5 -14 8
4 15 2 15 -4 0 -6 -4 -12 -10 -14 -5 -1 -6 -8 -2 -14 5 -7 18 -8 42 -1 26 8
30 11 16 15 -25 5 -46 26 -46 46 0 9 -8 16 -20 16 -11 0 -20 -5 -20 -11z"/>
<path d="M5570 5905 c0 -8 4 -15 10 -15 11 0 29 -31 33 -59 4 -24 36 -63 47
-56 4 3 19 -5 34 -16 l26 -20 0 20 c0 16 -6 21 -25 21 -17 0 -23 4 -19 14 4 9
-16 37 -50 71 -32 32 -56 49 -56 40z"/>
<path d="M6821 5903 c-1 -20 -7 -23 -41 -23 -22 0 -40 -4 -40 -10 0 -5 -18
-10 -40 -10 -22 0 -40 5 -40 10 0 6 -43 10 -109 10 -78 0 -111 4 -114 13 -4 9
-6 9 -6 0 -2 -21 31 -30 118 -35 52 -3 86 -9 89 -16 2 -8 33 -12 88 -12 82 0
85 1 95 27 5 15 8 36 6 47 -4 20 -4 19 -6 -1z m-94 -59 c-3 -3 -12 -4 -19 -1
-8 3 -5 6 6 6 11 1 17 -2 13 -5z"/>
<path d="M6041 5784 c0 -11 3 -14 6 -6 3 7 2 16 -1 19 -3 4 -6 -2 -5 -13z"/>
<path d="M6296 5791 c-4 -7 8 -56 26 -109 64 -182 69 -197 77 -227 16 -63 43
-105 70 -111 14 -3 37 -10 51 -15 14 -4 75 -11 135 -14 109 -6 110 -6 134 19
14 15 28 46 32 73 26 149 38 366 21 377 -4 2 -127 8 -273 12 -203 5 -268 4
-273 -5z m108 -103 c5 -10 7 -10 12 0 7 14 84 17 84 2 0 -5 -13 -10 -29 -10
-28 0 -28 -1 -30 -62 -4 -92 -4 -98 -14 -98 -5 0 -7 32 -5 70 3 62 2 70 -14
70 -10 0 -18 -4 -18 -10 0 -5 -7 -10 -15 -10 -18 0 -21 46 -2 53 20 9 25 8 31
-5z m76 -78 c0 -5 -4 -10 -10 -10 -5 0 -10 5 -10 10 0 6 5 10 10 10 6 0 10 -4
10 -10z"/>
<path d="M6095 5722 c-49 -24 -111 -55 -137 -68 -26 -13 -54 -24 -61 -24 -7 0
-28 -13 -47 -29 -33 -27 -34 -29 -22 -67 10 -36 40 -80 85 -126 9 -10 17 -23
17 -29 0 -6 14 -27 30 -46 17 -18 30 -39 30 -47 0 -16 90 -106 106 -106 34 0
233 97 262 128 13 13 21 31 18 39 -4 8 -13 46 -20 83 -8 38 -21 81 -29 97 -8
15 -18 44 -22 63 -4 19 -23 68 -42 108 -40 87 -42 87 -168 24z m135 -92 c6
-38 16 -70 21 -70 5 0 9 -31 9 -70 0 -40 4 -70 10 -70 16 0 12 -90 -5 -106
-12 -12 -15 -12 -16 -2 0 10 -2 10 -6 1 -2 -7 -18 -13 -33 -13 -16 0 -32 -4
-35 -10 -3 -5 -29 -10 -56 -10 -49 0 -79 15 -79 40 0 14 -46 60 -60 60 -13 0
-54 41 -57 58 -2 7 2 12 9 12 6 0 1 8 -10 19 -30 25 -31 87 -2 96 11 3 30 3
41 0 15 -5 19 -4 15 4 -5 7 4 11 26 11 22 0 39 7 48 20 8 12 26 20 42 20 15 0
28 5 28 12 0 17 61 68 81 68 14 0 20 -15 29 -70z"/>
<path d="M6008 5753 c7 -3 16 -2 19 1 4 3 -2 6 -13 5 -11 0 -14 -3 -6 -6z"/>
<path d="M5868 5703 c-18 -5 -34 -34 -15 -30 13 2 41 27 36 31 -2 1 -11 1 -21
-1z"/>
<path d="M5760 5670 c0 -13 30 -13 50 0 11 7 7 10 -17 10 -18 0 -33 -4 -33
-10z"/>
<path d="M630 5632 c-30 -2 -60 -8 -67 -14 -21 -17 -16 -76 6 -88 28 -14 333
-13 366 2 24 11 44 52 31 65 -3 3 -36 7 -73 8 -61 3 -180 18 -200 27 -4 2 -33
2 -63 0z"/>
<path d="M1650 5621 c0 -10 9 -21 19 -24 24 -6 31 0 31 25 0 13 -7 18 -25 18
-18 0 -25 -5 -25 -19z"/>
<path d="M1327 5593 c-10 -9 -8 -43 2 -43 5 0 14 7 21 15 17 21 -4 48 -23 28z"/>
<path d="M0 5305 l0 -207 78 7 c42 4 80 10 83 14 20 20 29 90 29 221 0 106 -4
150 -12 157 -7 6 -50 11 -95 12 l-83 2 0 -206z"/>
<path d="M547 5434 c-12 -12 -8 -61 7 -73 17 -14 166 -13 249 1 57 11 57 11
40 31 -10 11 -31 25 -48 32 -32 14 -236 21 -248 9z"/>
<path d="M1043 5385 c-31 -32 -41 -72 -43 -189 l-1 -108 23 5 c31 8 93 -7 113
-27 21 -21 26 -20 102 5 58 20 77 39 53 54 -5 3 -10 33 -10 66 0 44 -4 59 -14
59 -8 0 -22 8 -32 18 -10 9 -31 22 -48 27 -28 9 -31 14 -31 50 -1 22 -4 46 -8
52 -12 19 -81 11 -104 -12z"/>
<path d="M1634 5379 c-3 -6 -7 -71 -8 -145 l-1 -134 27 -5 c15 -4 31 -4 36 -1
5 3 7 42 4 88 -2 46 0 101 6 123 12 53 0 85 -32 85 -14 0 -28 -5 -32 -11z"/>
<path d="M545 5218 c-3 -13 -5 -70 -3 -128 l3 -105 51 -3 c106 -6 133 33 108
152 -8 37 -13 70 -13 74 5 28 -4 32 -71 32 -64 0 -70 -2 -75 -22z"/>
<path d="M2350 5009 c-6 -11 -10 -30 -8 -42 3 -20 10 -22 76 -25 l72 -3 0 34
c0 46 -15 57 -77 57 -43 0 -54 -4 -63 -21z"/>
<path d="M2655 5019 c-14 -21 5 -59 28 -59 36 0 61 23 53 48 -6 17 -15 22 -41
22 -19 0 -37 -5 -40 -11z"/>
<path d="M3062 5021 c-8 -5 -12 -19 -10 -32 3 -21 8 -24 43 -24 31 0 41 4 43
19 2 10 0 22 -5 26 -14 13 -57 20 -71 11z"/>
<path d="M1067 5002 c-31 -4 -53 -43 -41 -71 4 -9 12 -34 18 -56 19 -68 38
-51 76 67 11 37 -14 65 -53 60z"/>
<path d="M2114 4955 c-45 -49 -58 -54 -72 -29 -13 24 -75 11 -96 -20 l-15 -24
127 -4 c70 -2 135 0 146 5 35 17 3 117 -38 117 -5 0 -28 -20 -52 -45z"/>
<path d="M557 4886 c-12 -12 -14 -50 -13 -215 0 -110 4 -202 7 -206 4 -3 19
-7 35 -8 26 -2 29 1 32 33 4 40 17 58 49 71 23 8 23 12 21 123 -2 110 -1 117
25 153 15 20 23 41 18 46 -4 4 -42 10 -84 13 -58 4 -78 1 -90 -10z"/>
<path d="M1820 4888 c0 -4 16 -8 35 -8 19 0 35 3 35 8 0 4 -16 7 -35 7 -19 0
-35 -3 -35 -7z"/>
<path d="M1320 4822 c-11 -12 -15 -43 -16 -117 -1 -95 9 -145 28 -145 16 0 17
24 10 151 -6 113 -9 125 -22 111z"/>
<path d="M0 4611 l0 -180 33 4 c17 3 53 7 79 10 33 4 51 12 58 25 6 10 15 74
22 142 10 113 10 126 -6 151 -18 26 -22 27 -102 27 l-84 0 0 -179z"/>
<path d="M2609 4757 c-8 -18 -7 -33 5 -60 23 -57 56 -45 56 19 0 58 -41 85
-61 41z"/>
<path d="M2900 4751 c-32 -60 16 -141 58 -99 19 19 15 82 -6 101 -24 22 -39
21 -52 -2z"/>
<path d="M1851 4724 c-23 -16 -19 -73 5 -87 21 -12 156 -9 190 3 28 11 33 60
8 81 -21 17 -179 19 -203 3z"/>
<path d="M2366 4714 c-51 -50 29 -111 117 -89 30 8 41 55 20 85 -18 26 -113
29 -137 4z"/>
<path d="M1640 4701 c0 -5 -16 -18 -35 -30 -21 -12 -35 -28 -35 -40 0 -25 45
-60 69 -54 10 3 22 0 25 -6 10 -16 26 -13 26 4 0 8 5 15 11 15 20 0 3 83 -21
102 -24 20 -40 23 -40 9z"/>
<path d="M730 4521 c-21 -41 -7 -61 44 -61 28 0 56 29 56 58 0 19 -5 22 -45
22 -34 0 -47 -5 -55 -19z"/>
<path d="M1018 4503 c-8 -10 -13 -25 -11 -34 3 -13 12 -14 61 -5 67 12 96 37
54 47 -52 12 -89 9 -104 -8z"/>
<path d="M2010 4490 c-11 -7 -15 -30 -15 -97 l0 -88 33 -3 c46 -5 61 18 62 93
0 86 -7 105 -39 105 -14 0 -33 -5 -41 -10z"/>
<path d="M2513 4483 c-7 -17 15 -64 33 -70 12 -4 27 64 18 79 -9 14 -44 9 -51
-9z"/>
<path d="M2367 4483 c-10 -17 -17 -103 -11 -127 13 -55 64 -17 64 47 0 61 -10
87 -31 87 -10 0 -20 -3 -22 -7z"/>
<path d="M2674 4454 c3 -9 6 -27 6 -41 0 -25 0 -26 20 -8 11 10 20 29 20 42 0
18 -5 23 -26 23 -20 0 -25 -4 -20 -16z"/>
<path d="M2008 4188 c-21 -17 -33 -150 -16 -181 16 -30 39 -46 66 -47 32 0 43
38 38 133 -3 63 -8 83 -22 94 -22 16 -46 17 -66 1z"/>
<path d="M2157 4173 c-9 -8 -8 -96 1 -147 5 -29 12 -40 28 -42 32 -5 46 19 49
83 3 70 -15 113 -49 113 -12 0 -26 -3 -29 -7z"/>
<path d="M2366 4154 c-3 -9 -6 -49 -6 -90 0 -67 2 -74 20 -74 27 0 36 58 24
148 -5 34 -27 44 -38 16z"/>
<path d="M0 3891 l0 -208 38 -7 c53 -8 92 -7 92 3 0 11 299 13 325 2 14 -6 28
-2 48 11 l27 19 0 185 c0 139 -3 186 -12 189 -7 2 -127 6 -265 9 l-253 5 0
-208z"/>
<path d="M736 4068 c-31 -43 -10 -98 36 -98 33 0 88 -28 88 -45 0 -17 -23 -24
-73 -23 -59 0 -77 -23 -77 -96 0 -34 4 -66 8 -72 8 -12 363 -27 378 -16 30 22
38 62 42 201 4 131 3 146 -14 158 -13 10 -64 13 -195 13 -172 0 -178 -1 -193
-22z"/>
<path d="M1663 3968 c-31 -15 -44 -100 -20 -124 4 -4 7 -30 7 -57 0 -46 1 -49
23 -43 12 3 25 6 28 6 3 0 9 36 13 81 4 44 7 84 7 87 8 58 -10 73 -58 50z"/>
<path d="M2000 3814 c-23 -60 -3 -98 57 -106 l31 -4 4 54 c4 68 -4 82 -48 82
-28 0 -36 -5 -44 -26z"/>
<path d="M2356 3822 c-3 -9 -2 -46 2 -82 8 -73 28 -89 64 -50 31 34 18 98 -27
127 -31 19 -35 20 -39 5z"/>
<path d="M2352 3528 c-15 -15 -16 -144 -1 -187 13 -36 39 -41 69 -13 14 13 22
38 26 79 9 84 2 106 -39 121 -41 15 -40 15 -55 0z"/>
<path d="M4045 1167 c-4 -10 -5 -21 -1 -24 10 -10 18 4 13 24 -4 17 -4 17 -12
0z"/>
<path d="M3775 919 c-4 -5 -18 -14 -31 -19 -14 -6 -24 -18 -24 -29 0 -11 -9
-23 -20 -26 -11 -3 -20 -10 -20 -15 0 -4 -19 -11 -42 -15 -48 -8 -112 -45
-127 -73 -7 -14 -5 -21 10 -30 29 -18 6 -46 -65 -78 -64 -28 -89 -47 -79 -58
4 -3 -1 -6 -9 -6 -9 0 -39 -16 -68 -35 -29 -19 -59 -35 -67 -35 -10 0 -13 -6
-9 -16 3 -9 2 -12 -5 -9 -6 4 -37 -9 -69 -29 -58 -36 -191 -96 -220 -99 -8 -1
-17 -4 -20 -7 -3 -3 -17 -13 -32 -23 -34 -21 -36 -43 -5 -51 37 -10 47 -7 47
14 0 11 7 20 15 20 8 0 15 4 15 8 0 4 17 14 38 21 20 8 44 22 53 32 9 11 26
19 38 19 11 0 21 5 21 10 0 6 24 10 54 10 30 0 58 4 61 10 3 6 14 10 23 10 10
0 24 9 32 20 8 11 22 20 32 20 10 0 18 5 18 10 0 6 9 10 20 10 11 0 20 5 20
10 0 6 9 10 20 10 11 0 20 5 20 10 0 6 9 10 20 10 11 0 20 5 20 10 0 6 9 10
20 10 11 0 20 5 20 10 0 6 7 10 16 10 15 0 44 23 44 35 0 4 7 13 15 21 8 9 15
13 15 9 0 -3 10 3 22 15 24 23 48 26 48 8 0 -9 4 -8 10 2 7 11 10 5 10 -23 0
-23 4 -36 10 -32 6 3 10 25 10 48 0 32 3 38 12 29 22 -22 28 -13 28 42 0 37
-4 54 -12 53 -7 0 -31 1 -52 1 -37 2 -39 3 -20 17 10 8 32 15 47 15 29 0 57
20 57 40 0 6 5 8 10 5 6 -4 10 7 10 24 0 25 4 31 23 31 17 0 19 2 8 9 -11 7
-9 10 10 14 22 4 22 4 2 6 -12 0 -25 -4 -28 -10z m-213 -211 c-9 -9 -15 -9
-24 0 -9 9 -7 12 12 12 19 0 21 -3 12 -12z"/>
<path d="M3832 883 c-26 -33 -32 -74 -7 -49 8 8 15 20 15 27 0 6 10 20 22 30
15 14 17 19 6 19 -8 0 -24 -12 -36 -27z"/>
<path d="M3780 800 c0 -11 5 -20 10 -20 6 0 10 9 10 20 0 11 -4 20 -10 20 -5
0 -10 -9 -10 -20z"/>
<path d="M7538 793 c7 -3 16 -2 19 1 4 3 -2 6 -13 5 -11 0 -14 -3 -6 -6z"/>
<path d="M7625 710 c3 -5 8 -10 11 -10 2 0 4 5 4 10 0 6 -5 10 -11 10 -5 0 -7
-4 -4 -10z"/>
<path d="M8515 687 c-8 -20 -15 -39 -15 -42 0 -11 32 -5 45 9 18 18 228 33
233 17 2 -6 17 -11 33 -11 16 0 29 -4 29 -8 0 -15 40 -6 53 11 6 9 30 18 52
20 22 2 6 4 -37 5 -47 1 -78 6 -80 13 -3 8 -54 13 -151 17 l-147 5 -15 -36z"/>
<path d="M8995 670 c-10 -16 -5 -17 35 -9 19 3 27 7 18 8 -9 0 -23 4 -31 7 -8
3 -18 0 -22 -6z"/>
<path d="M2975 583 c-38 -9 -151 -18 -305 -23 -355 -13 -453 -23 -527 -54 -34
-14 -74 -26 -87 -26 -21 0 -26 -6 -32 -35 -9 -51 -8 -73 8 -150 21 -101 31
-115 78 -115 59 0 138 19 205 50 137 62 155 70 168 70 8 0 36 11 63 25 27 14
59 25 71 25 12 0 30 8 40 18 39 40 230 81 247 53 11 -17 36 -13 36 7 0 14 2
15 10 2 8 -12 10 -11 10 5 0 13 15 30 39 45 22 14 42 33 44 43 3 9 12 17 20
17 19 0 68 25 68 35 1 27 -64 31 -156 8z"/>
<path d="M4755 590 c-60 -22 -266 -298 -384 -513 l-42 -77 45 0 c39 0 46 3 46
20 0 11 5 20 10 20 6 0 10 9 10 20 0 11 5 20 10 20 6 0 10 6 10 13 0 19 45 67
64 67 9 0 16 8 16 20 0 11 5 20 10 20 6 0 10 11 10 24 0 16 7 27 21 31 17 6
19 9 8 16 -10 6 -11 9 -1 9 6 0 12 9 12 20 0 15 7 20 28 20 16 0 34 8 42 20
15 21 70 28 70 10 0 -5 23 -10 50 -10 28 0 50 -4 50 -10 0 -5 8 -10 19 -10 16
0 18 -10 20 -90 1 -55 -3 -90 -9 -90 -6 0 -10 -26 -10 -60 0 -33 -4 -60 -10
-60 -5 0 -10 -4 -10 -10 0 -23 29 -7 40 23 7 17 23 55 35 82 12 28 31 70 42
95 32 72 66 207 59 232 -8 30 -61 68 -161 116 -55 27 -87 37 -100 32z"/>
<path d="M3640 569 c0 -5 5 -7 10 -4 6 3 10 8 10 11 0 2 -4 4 -10 4 -5 0 -10
-5 -10 -11z"/>
<path d="M4533 450 c-12 -28 -8 -39 8 -23 6 6 9 19 6 29 -3 17 -5 16 -14 -6z"/>
<path d="M5110 417 c-28 -14 -57 -65 -85 -152 -10 -33 -36 -103 -57 -155 -21
-52 -38 -98 -38 -102 0 -4 25 -8 55 -8 l55 0 0 33 c0 25 6 36 29 49 26 14 32
14 50 1 21 -14 61 -10 61 8 0 5 9 9 20 9 15 0 20 7 20 26 0 35 22 54 64 54 20
0 36 5 36 10 0 6 11 10 25 10 34 0 95 -61 95 -95 0 -14 5 -25 10 -25 6 0 10
-18 10 -40 0 -39 1 -40 34 -40 l33 0 7 160 c4 88 5 168 2 178 -7 22 -43 41
-101 54 -168 39 -280 48 -325 25z"/>
<path d="M3820 310 c0 -5 5 -10 10 -10 6 0 10 5 10 10 0 6 -4 10 -10 10 -5 0
-10 -4 -10 -10z"/>
<path d="M3820 260 c0 -11 5 -20 10 -20 6 0 10 9 10 20 0 11 -4 20 -10 20 -5
0 -10 -9 -10 -20z"/>
<path d="M2740 260 c-65 -11 -133 -30 -127 -36 3 -3 49 -10 103 -15 54 -6 101
-13 104 -17 3 -4 14 -12 25 -18 11 -6 29 -28 39 -48 20 -36 56 -50 56 -21 0
21 -51 91 -77 106 -13 7 -23 18 -23 25 0 13 -31 35 -47 33 -4 -1 -28 -5 -53
-9z"/>
<path d="M9230 260 c0 -5 5 -10 10 -10 6 0 10 5 10 10 0 6 -4 10 -10 10 -5 0
-10 -4 -10 -10z"/>
<path d="M620 173 c-14 -1 -115 -7 -225 -13 -400 -21 -395 -21 -395 -39 0 -18
28 -17 390 9 80 6 223 10 318 10 166 0 212 7 212 31 0 10 -186 11 -300 2z"/>
<path d="M7540 170 c0 -5 -5 -10 -11 -10 -6 0 -27 -13 -46 -30 -18 -16 -39
-30 -46 -30 -7 0 -37 -22 -66 -50 l-53 -50 54 0 c30 0 59 5 66 12 9 9 12 9 12
0 0 -16 27 -15 33 1 4 9 6 9 6 -1 1 -7 12 -1 28 14 18 18 23 29 15 32 -7 2
-12 8 -12 13 0 14 38 11 43 -3 4 -9 8 -10 14 -2 16 21 50 22 67 3 9 -11 16
-24 16 -30 0 -26 30 -39 92 -39 l63 1 -40 37 c-118 108 -166 142 -203 142 -18
0 -32 -4 -32 -10z"/>
<path d="M5260 146 c0 -20 23 -26 96 -26 67 0 73 3 50 26 -20 20 -146 20 -146
0z"/>
<path d="M8400 125 c0 -8 5 -15 10 -15 6 0 10 7 10 15 0 8 -4 15 -10 15 -5 0
-10 -7 -10 -15z"/>
<path d="M8326 15 c-4 -12 5 -15 51 -15 52 0 55 1 37 15 -25 19 -80 19 -88 0z"/>
</g>
</svg>
